<mxfile host="app.diagrams.net" modified="2021-10-05T18:35:58.496Z" agent="5.0 (Windows NT 10.0; Win64; x64) AppleWebKit/537.36 (KHTML, like Gecko) Chrome/94.0.4606.61 Safari/537.36" etag="iCdNJcpxNnhfj7jPdRZ_" version="15.4.1" type="github">
  <diagram id="tgPmus2oR-Km33g-Dg2_" name="Page-1">
    <mxGraphModel dx="782" dy="436" grid="1" gridSize="10" guides="1" tooltips="1" connect="1" arrows="1" fold="1" page="1" pageScale="1" pageWidth="850" pageHeight="1100" math="0" shadow="0">
      <root>
        <mxCell id="0" />
        <mxCell id="1" parent="0" />
        <mxCell id="DQcZgtBB1W35Lyn4rimL-1" value="Timelapse Footage" style="rounded=0;whiteSpace=wrap;html=1;fillColor=#fff2cc;strokeColor=#d6b656;" vertex="1" parent="1">
          <mxGeometry x="30" y="50" width="120" height="60" as="geometry" />
        </mxCell>
        <mxCell id="DQcZgtBB1W35Lyn4rimL-2" value="Notes of Sites" style="rounded=0;whiteSpace=wrap;html=1;fillColor=#fff2cc;strokeColor=#d6b656;" vertex="1" parent="1">
          <mxGeometry x="30" y="120" width="120" height="60" as="geometry" />
        </mxCell>
        <mxCell id="DQcZgtBB1W35Lyn4rimL-3" value="Level Logger Site Data" style="rounded=0;whiteSpace=wrap;html=1;fillColor=#fff2cc;strokeColor=#d6b656;" vertex="1" parent="1">
          <mxGeometry x="30" y="190" width="120" height="60" as="geometry" />
        </mxCell>
        <mxCell id="DQcZgtBB1W35Lyn4rimL-30" style="edgeStyle=orthogonalEdgeStyle;rounded=0;orthogonalLoop=1;jettySize=auto;html=1;exitX=1;exitY=0.5;exitDx=0;exitDy=0;entryX=0.5;entryY=1;entryDx=0;entryDy=0;" edge="1" parent="1" source="DQcZgtBB1W35Lyn4rimL-4" target="DQcZgtBB1W35Lyn4rimL-16">
          <mxGeometry relative="1" as="geometry">
            <mxPoint x="370" y="290" as="targetPoint" />
          </mxGeometry>
        </mxCell>
        <mxCell id="DQcZgtBB1W35Lyn4rimL-4" value="Temperature Logger Site Data" style="rounded=0;whiteSpace=wrap;html=1;fillColor=#fff2cc;strokeColor=#d6b656;" vertex="1" parent="1">
          <mxGeometry x="30" y="260" width="120" height="60" as="geometry" />
        </mxCell>
        <mxCell id="DQcZgtBB1W35Lyn4rimL-5" value="Survey Temperature Logger Site Data" style="rounded=0;whiteSpace=wrap;html=1;fillColor=#fff2cc;strokeColor=#d6b656;" vertex="1" parent="1">
          <mxGeometry x="30" y="330" width="120" height="60" as="geometry" />
        </mxCell>
        <mxCell id="DQcZgtBB1W35Lyn4rimL-6" value="Snorkel/E-Fish Data" style="rounded=0;whiteSpace=wrap;html=1;fillColor=#fff2cc;strokeColor=#d6b656;" vertex="1" parent="1">
          <mxGeometry x="30" y="400" width="120" height="60" as="geometry" />
        </mxCell>
        <mxCell id="DQcZgtBB1W35Lyn4rimL-7" value="Opportunistic Habitat Data" style="rounded=0;whiteSpace=wrap;html=1;fillColor=#fff2cc;strokeColor=#d6b656;" vertex="1" parent="1">
          <mxGeometry x="30" y="470" width="120" height="60" as="geometry" />
        </mxCell>
        <mxCell id="DQcZgtBB1W35Lyn4rimL-11" value="Review and note disconnection days" style="text;html=1;strokeColor=none;fillColor=none;align=center;verticalAlign=middle;whiteSpace=wrap;rounded=0;" vertex="1" parent="1">
          <mxGeometry x="160" y="47" width="140" height="30" as="geometry" />
        </mxCell>
        <mxCell id="DQcZgtBB1W35Lyn4rimL-12" value="Review and note disconnect day estimates" style="text;html=1;strokeColor=none;fillColor=none;align=center;verticalAlign=middle;whiteSpace=wrap;rounded=0;" vertex="1" parent="1">
          <mxGeometry x="180" y="110" width="140" height="40" as="geometry" />
        </mxCell>
        <mxCell id="DQcZgtBB1W35Lyn4rimL-15" value="Disconnection Day/Estimates Data" style="rounded=0;whiteSpace=wrap;html=1;fillColor=#fff2cc;strokeColor=#d6b656;" vertex="1" parent="1">
          <mxGeometry x="310" y="50" width="120" height="60" as="geometry" />
        </mxCell>
        <mxCell id="DQcZgtBB1W35Lyn4rimL-16" value="Graph of Temporal Data with Disconnection Periods" style="rounded=0;whiteSpace=wrap;html=1;fillColor=#e1d5e7;strokeColor=#9673a6;" vertex="1" parent="1">
          <mxGeometry x="310" y="190" width="120" height="60" as="geometry" />
        </mxCell>
        <mxCell id="DQcZgtBB1W35Lyn4rimL-21" value="" style="endArrow=classic;html=1;rounded=0;edgeStyle=orthogonalEdgeStyle;" edge="1" parent="1">
          <mxGeometry relative="1" as="geometry">
            <mxPoint x="150" y="79.5" as="sourcePoint" />
            <mxPoint x="310" y="80" as="targetPoint" />
            <Array as="points">
              <mxPoint x="270" y="80" />
              <mxPoint x="270" y="80" />
            </Array>
          </mxGeometry>
        </mxCell>
        <mxCell id="DQcZgtBB1W35Lyn4rimL-26" value="" style="endArrow=classic;html=1;rounded=0;edgeStyle=orthogonalEdgeStyle;entryX=0.333;entryY=1;entryDx=0;entryDy=0;entryPerimeter=0;" edge="1" parent="1" target="DQcZgtBB1W35Lyn4rimL-15">
          <mxGeometry relative="1" as="geometry">
            <mxPoint x="150" y="149.5" as="sourcePoint" />
            <mxPoint x="350" y="150" as="targetPoint" />
            <Array as="points">
              <mxPoint x="350" y="150" />
            </Array>
          </mxGeometry>
        </mxCell>
        <mxCell id="DQcZgtBB1W35Lyn4rimL-27" value="" style="endArrow=classic;html=1;rounded=0;edgeStyle=orthogonalEdgeStyle;entryX=0;entryY=0.5;entryDx=0;entryDy=0;" edge="1" parent="1" target="DQcZgtBB1W35Lyn4rimL-16">
          <mxGeometry relative="1" as="geometry">
            <mxPoint x="150" y="219.5" as="sourcePoint" />
            <mxPoint x="250" y="219.5" as="targetPoint" />
          </mxGeometry>
        </mxCell>
        <mxCell id="DQcZgtBB1W35Lyn4rimL-29" value="" style="endArrow=classic;html=1;rounded=0;edgeStyle=orthogonalEdgeStyle;" edge="1" parent="1">
          <mxGeometry relative="1" as="geometry">
            <mxPoint x="369.5" y="110" as="sourcePoint" />
            <mxPoint x="370" y="190" as="targetPoint" />
            <Array as="points">
              <mxPoint x="369.5" y="140" />
              <mxPoint x="369.5" y="140" />
            </Array>
          </mxGeometry>
        </mxCell>
        <mxCell id="DQcZgtBB1W35Lyn4rimL-31" value="" style="endArrow=classic;html=1;rounded=0;edgeStyle=orthogonalEdgeStyle;" edge="1" parent="1">
          <mxGeometry relative="1" as="geometry">
            <mxPoint x="430" y="220" as="sourcePoint" />
            <mxPoint x="500" y="219.5" as="targetPoint" />
            <Array as="points">
              <mxPoint x="500" y="219.5" />
              <mxPoint x="500" y="219.5" />
            </Array>
          </mxGeometry>
        </mxCell>
        <mxCell id="DQcZgtBB1W35Lyn4rimL-32" value="PDF Attachment in ArcGIS Pro" style="rounded=0;whiteSpace=wrap;html=1;fillColor=#d5e8d4;strokeColor=#82b366;" vertex="1" parent="1">
          <mxGeometry x="500" y="190" width="120" height="60" as="geometry" />
        </mxCell>
        <mxCell id="DQcZgtBB1W35Lyn4rimL-33" style="edgeStyle=orthogonalEdgeStyle;rounded=0;orthogonalLoop=1;jettySize=auto;html=1;entryX=0.5;entryY=0;entryDx=0;entryDy=0;" edge="1" parent="1" target="DQcZgtBB1W35Lyn4rimL-32">
          <mxGeometry relative="1" as="geometry">
            <mxPoint x="550" y="30" as="targetPoint" />
            <mxPoint x="30" y="150" as="sourcePoint" />
            <Array as="points">
              <mxPoint x="20" y="150" />
              <mxPoint x="20" y="30" />
              <mxPoint x="560" y="30" />
            </Array>
          </mxGeometry>
        </mxCell>
      </root>
    </mxGraphModel>
  </diagram>
</mxfile>
